/* XPM */
static char *_9eea4911f534089c4b6cc70b81c39f33VBRyjbBzwmieejg[] = {
/* columns rows colors chars-per-pixel */
"32 32 235 2 ",
"   c #583E29",
".  c #653B2A",
"X  c #643E32",
"o  c #60421E",
"O  c #54432A",
"+  c #5C432C",
"@  c #594628",
"#  c #5D572E",
"$  c #5A4A31",
"%  c #5A4534",
"&  c #5D5B35",
"*  c #5A543A",
"=  c #5D5C3C",
"-  c #595434",
";  c #62412C",
":  c #65492E",
">  c #68422F",
",  c #794C2F",
"<  c #6A5C2C",
"1  c #67592C",
"2  c #76532E",
"3  c #634433",
"4  c #6A4433",
"5  c #694B33",
"6  c #64493C",
"7  c #764D35",
"8  c #784D39",
"9  c #645534",
"0  c #635B35",
"q  c #685B35",
"w  c #63553A",
"e  c #6B563D",
"r  c #635C3C",
"t  c #6B5B3D",
"y  c #6D5637",
"u  c #73533C",
"i  c #79553B",
"p  c #735837",
"a  c #5A623A",
"s  c #6A632A",
"d  c #6B6333",
"f  c #64623C",
"g  c #6A623A",
"h  c #646638",
"j  c #756439",
"k  c #77773C",
"l  c #766B2A",
"z  c #5D5B44",
"x  c #5A5847",
"c  c #645643",
"v  c #685743",
"b  c #635B42",
"n  c #6B5C42",
"m  c #635C4A",
"M  c #695B4D",
"N  c #695449",
"B  c #7C5B42",
"V  c #745A45",
"C  c #6A5453",
"Z  c #645C53",
"A  c #70544E",
"S  c #586446",
"D  c #576659",
"F  c #646243",
"G  c #6B6444",
"H  c #64634A",
"J  c #6C654D",
"K  c #6B6B4B",
"L  c #6C6845",
"P  c #736243",
"I  c #72644B",
"U  c #7C634A",
"Y  c #736D4B",
"T  c #776945",
"R  c #75724C",
"E  c #78724C",
"W  c #7C7B4A",
"Q  c #777646",
"!  c #636453",
"~  c #676856",
"^  c #766A57",
"/  c #767252",
"(  c #7B7553",
")  c #7D7A54",
"_  c #7B765A",
"`  c #7D7B5B",
"'  c #777952",
"]  c #627B5B",
"[  c #5C6769",
"{  c #7E7D63",
"}  c #6E6E6A",
"|  c #987E16",
" . c #8E7F10",
".. c #A17F14",
"X. c #81543D",
"o. c #8A7524",
"O. c #84633C",
"+. c #957E33",
"@. c #917833",
"#. c #895B45",
"$. c #9A5E44",
"%. c #8C6145",
"&. c #82634A",
"*. c #8B634B",
"=. c #836847",
"-. c #926445",
";. c #867A4D",
":. c #817655",
">. c #837D5B",
",. c #827756",
"<. c #876750",
"1. c #837C64",
"2. c #867B67",
"3. c #948909",
"4. c #978608",
"5. c #9B8B12",
"6. c #96821C",
"7. c #998717",
"8. c #8E8A1A",
"9. c #A9980B",
"0. c #A38B15",
"q. c #A88D1C",
"w. c #AA9619",
"e. c #B39C1B",
"r. c #B59718",
"t. c #A18C0D",
"y. c #B9A61B",
"u. c #BCB511",
"i. c #8D8622",
"p. c #948625",
"a. c #8F8535",
"s. c #A38323",
"d. c #AA9225",
"f. c #B59A23",
"g. c #B69825",
"h. c #AB9831",
"j. c #BCAD29",
"k. c #BFAC21",
"l. c #C3AE13",
"z. c #C5A71C",
"x. c #CAB015",
"c. c #C6AE25",
"v. c #81814B",
"b. c #85825E",
"n. c #81895A",
"m. c #898366",
"M. c #939269",
"N. c #938C74",
"B. c #8F927D",
"V. c #938770",
"C. c #ACAA7A",
"Z. c #A7A579",
"A. c #B2AA7B",
"S. c #B4A36F",
"D. c #C0AF43",
"F. c #5A7A93",
"G. c #677985",
"H. c #6C7898",
"J. c #527FA8",
"K. c #607CAE",
"L. c #5E869C",
"P. c #66888F",
"I. c #71888E",
"U. c #7A938C",
"Y. c #62849C",
"T. c #6C829E",
"R. c #638B9B",
"E. c #668B97",
"W. c #788B96",
"Q. c #74959A",
"!. c #769098",
"~. c #5C85A4",
"^. c #598AA6",
"/. c #598CAB",
"(. c #6684A2",
"). c #6A87A7",
"_. c #788CA5",
"`. c #7B94A6",
"'. c #6A8CB4",
"]. c #798EB2",
"[. c #7996B4",
"{. c #89978C",
"}. c #989A8A",
"|. c #818C97",
" X c #8E919E",
".X c #839393",
"XX c #979899",
"oX c #988E8C",
"OX c #A49E84",
"+X c #A79B98",
"@X c #9EA184",
"#X c #ACA583",
"$X c #ABAA84",
"%X c #ADAB8B",
"&X c #A6A584",
"*X c #B2AD85",
"=X c #B3A58A",
"-X c #B2AD8A",
";X c #B6AA88",
":X c #B4B28B",
">X c #B4B586",
",X c #B2AC93",
"<X c #BBAE9B",
"1X c #B8B696",
"2X c #AAAF92",
"3X c #868FA8",
"4X c #8796A6",
"5X c #959BA8",
"6X c #9792B1",
"7X c #A09EA1",
"8X c #9FA3A6",
"9X c #B8AEA3",
"0X c #D2BB9E",
"qX c #C6BCA8",
"wX c #BCC09D",
"eX c #BCC3A8",
"rX c #C6C09E",
"tX c #C6C3A4",
"yX c #CCCAA6",
"uX c #CBC6AB",
"iX c #CDC9AD",
"pX c #C7C6A8",
"aX c #D3CCAB",
"sX c #D7C9A9",
"dX c #D3D2AA",
"fX c #CBCAB2",
"gX c #CCC9BA",
"hX c #C8C6B5",
"jX c #D2CCBC",
"kX c #D0CBB3",
"lX c #C6D6B8",
"zX c #D6D3B5",
"xX c #C5C8C2",
"cX c #D4D0C2",
"vX c #E1D6C2",
/* pixels */
"e.l n.&XH D (.).XX7Xf $ 5 X o : G & >.>.;X*X*X:XzXkXcXh t 5.e.r.",
"e.V m.&XG.E.R.].3X XF O   ^ I b ,XG ( Y E :X#X-XZ.uXgXm M 3.e.r.",
"q.P a a H._.U.|.`.5X0 q # x iXgXb b ( b.( ( ( ,.1.gXF f r 7.| 0.",
"q.f.7.g T.~.P.4X!.5XC A ,XjXdXqXzXfXH / ) ` >.( r & Z v.r 9 a.4.",
"..5.l J b = D L.(.3Xb ;X:X@X$XjXpX%Xb r - r r r d 9XW ) 2.g N 8.",
"a Q >.,.sX0Xt b (.I.a Z.:X2X%XhXb r n V P r r r ( ( / >.Y >.vX9 ",
"1.:.V.:XaXqXsXx & x G v $ n A.-Xt <.B *.&.<.t ` W W ` jXzXyXfXzX",
"R S.=X2XlXeXL J 4.+.o.6.y.e.D.j + 5 X.8 #.&.9 ) _ _ C.-X>X1XxXR ",
"' #X*XC.2XN.P = 5.6.0.r.r.l.j.n > 4 u i *.&.P / ( ( -X-X%XV.&Xz ",
"R >.>.m.K r p a.7.w.w.f.r.l.j.A ; u u u y t r K ) >.R >.K J b b ",
"P Q ,.:.= F j 7.7.q.9.q.r.z.o.y + e t t Y ( Y = Y F Y K r $ U B ",
"B R R E K D 0 i.t.| w.f.9.h.5 @ + e r L R >.m./ J / r b q + B %.",
"%.G f = } G.! d +.3.7.4.6.V 6 @ 3 V r / b.=XtXaXiXiXb r @ : 7 -.",
"O.r K [ (.[.{.~ ^ i. .a.< C O @   e ) b.Z.#X=XOX&XtXn $ + 7 7 7 ",
"&.r } T./.Y.5XXXB.F j b f k M % + n >.Y >.E ) _ m.1XI   3 V 7 B ",
"C G ~ Y.^.P. X5X5XXX* { hXgXJ q O n r f r ) b H R Y r + + ; u u ",
"w H.L.E._._.U.W.oXx >.) %XyXpXF t i.4.g.q.H eXsXpXfXuXb $ $ O % ",
"x G.^.J.!.5X|.].oXJ E A.=X=XfXm v 3.e.d.y W b.#X%XiXkXJ w r I n ",
"OX= ] E.Q.3X`.^.0 f Y >.( =XaXaXP 3.t.j b ) ' $X#XaXiX* >.-XtXpX",
"iXU 1 ~ T.K.Y.).F _ 1.Q k ' ( gX9 5.d.c ` Q ^ v.*X=Xr r ) $X%X:X",
"wXhX+Xc f S h n w I v t < Z -Xf M 6.7.m _ ;.:.C.$X>.F ) R *X*X#X",
"C.eX}.j 0.5.7.| 5.k.l.l.j.V #Xm f 0 d r & W :.2.>.= F ` b.E ;X:X",
"V.yX}.q 7.0.q.e.g.r.z.z.c.e s S - 8X6Xf Z & G c n n v G E ) E ( ",
"` t q L i.4.r.w.9.e.r.c.u.r S ).3XW.{.XX+X6X$Xg + 3 % n ( ) E ) ",
"m f Z g 8.6.+.s.g.9.d.x.m 0 P ~.3X_.|.|.5XXXv ; 6   =.O.V M m F ",
"N.dXOX= s l p.3. .q.s.8.n r (.^.I.`.Q.Q._.4X! O O &.8 *.#.=.P t ",
";.tXcXgXm.r & m F v 9 %X<Xr (.R.).].`.I.4XXX= @ 4 4 7 i i 2 O.-.",
"1.,X1X1Xm _ zXhXlXhXF t m = H ~.R.F.4X.X XXXb $ 4 . i i : <.%.X.",
"%X%XM.f M.-XqXhXqXz % . cXgXy '.(.'.L.Y.).5Xm e = $ X . *.=.v Z ",
"n c r Y C.*X9X*XrXz > p 1 2 O.r L.P.D f r f W ) H r t ; + n G 0 ",
"u.l 1.,X$X*X,XuXeXF > 6 u , #.%.r r f ` gXqXsX0Xx L # F ! * s h.",
"y.U 1.C.{ z z r Z < @ 3 A 2 $.O.Z M ;.O.=X,XhXxXiXpXH gXm d p.9."
};
