/* XPM */
static char *_811281a0d414eeca72b5fd7fd2b8c87NZN1S25IBBoYkXeA[] = {
/* columns rows colors chars-per-pixel */
"32 32 211 2 ",
"   c #3C3B37",
".  c #3F3A36",
"X  c #3E3A37",
"o  c #3F3A37",
"O  c #3A3A38",
"+  c #3B3A38",
"@  c #3B3B39",
"#  c #3B393A",
"$  c #3A3A3A",
"%  c gray23",
"&  c #3D3938",
"*  c #3C3B39",
"=  c #3E3A39",
"-  c #3C3A3B",
";  c #3A3C39",
":  c #3D3C3A",
">  c #3A3A3C",
",  c #3B3B3D",
"<  c #3C3C3C",
"1  c #6E2709",
"2  c #6F250A",
"3  c #6D260A",
"4  c #6E270B",
"5  c #6E260D",
"6  c #6D280B",
"7  c #732300",
"8  c #732302",
"9  c #762303",
"0  c #732403",
"q  c #752500",
"w  c #742401",
"e  c #752502",
"r  c #742403",
"t  c #772402",
"y  c #732204",
"u  c #742305",
"i  c #762305",
"p  c #732405",
"a  c #712704",
"s  c #712406",
"d  c #712606",
"f  c #702706",
"g  c #712607",
"h  c #702707",
"j  c #722606",
"k  c #742504",
"l  c #752504",
"z  c #772404",
"x  c #772704",
"c  c #752406",
"v  c #742506",
"b  c #772406",
"n  c #762706",
"m  c #792604",
"M  c #782805",
"N  c #7B2904",
"B  c #7B2806",
"V  c #7A2A07",
"C  c #7C2804",
"Z  c #7D2905",
"A  c #7C2806",
"S  c #702609",
"D  c #712609",
"F  c #71250B",
"G  c #70260B",
"H  c #70260D",
"J  c #7B2808",
"K  c #7F2C0A",
"L  c #423733",
"P  c #413833",
"I  c #403933",
"U  c #433832",
"Y  c #403835",
"T  c #433834",
"R  c #423934",
"E  c #433A35",
"W  c #413937",
"Q  c #423836",
"!  c #443935",
"~  c #403B38",
"^  c #423A38",
"/  c #8A2A00",
"(  c #8B2B01",
")  c #8B2B03",
"_  c #892C00",
"`  c #892C03",
"'  c #8A2D02",
"]  c #8B2E02",
"[  c #8B2E03",
"{  c #8C2D01",
"}  c #8C2C02",
"|  c #8D2C02",
" . c #8D2D03",
".. c #8E2D02",
"X. c #8F2C03",
"o. c #8E2D03",
"O. c #8D2E02",
"+. c #8F2E03",
"@. c #8E2F03",
"#. c #8C2C04",
"$. c #8D2D05",
"%. c #8E2C05",
"&. c #8C2F04",
"*. c #8E2E04",
"=. c #8F2E04",
"-. c #8F2F05",
";. c #8F2D06",
":. c #8E2E06",
">. c #802E09",
",. c #802D0B",
"<. c #812D0B",
"1. c #902F04",
"2. c #902F05",
"3. c #8F3004",
"4. c #8E3105",
"5. c #8F3207",
"6. c #913005",
"7. c #903105",
"8. c #913006",
"9. c #913107",
"0. c #913206",
"q. c #A94013",
"w. c #AB4213",
"e. c #AD4313",
"r. c #AA4114",
"t. c #A94215",
"y. c #AB4215",
"u. c #AB4117",
"i. c #AC4115",
"p. c #AC4314",
"a. c #AE4315",
"s. c #AF4315",
"d. c #AD4216",
"f. c #AC4316",
"g. c #AF4217",
"h. c #AE4317",
"j. c #AD4414",
"k. c #AD4415",
"l. c #AE4414",
"z. c #AE4515",
"x. c #AF4515",
"c. c #AD4417",
"v. c #AF4416",
"b. c #AE4516",
"n. c #AF4617",
"m. c #AD4218",
"M. c #AF4418",
"N. c #B04416",
"B. c #B14516",
"V. c #B04517",
"C. c #B14517",
"Z. c #B04616",
"A. c #B14717",
"S. c #B24617",
"D. c #B04519",
"F. c #B14618",
"G. c #B04718",
"H. c #B24618",
"J. c #B24719",
"K. c #B2451A",
"L. c #B1461A",
"P. c #B2471B",
"I. c #B24818",
"U. c #B34919",
"Y. c #B3481A",
"T. c #B2491A",
"R. c #B4491B",
"E. c #B44A1A",
"W. c #B3481C",
"Q. c #B54A1E",
"!. c #B64B1F",
"~. c #B64D1E",
"^. c #C9693F",
"/. c #CA6B3F",
"(. c #CD6C3F",
"). c #CC6D3F",
"_. c #CC6B40",
"`. c #CE6B41",
"'. c #CD6C41",
"]. c #CF6C42",
"[. c #CE6D42",
"{. c #CE6D43",
"}. c #CF6E43",
"|. c #CF6E44",
" X c #D06F42",
".X c #D06D44",
"XX c #D06F44",
"oX c #D06F45",
"OX c #D17043",
"+X c #D17045",
"@X c #D27144",
"#X c #D07046",
"$X c #D17046",
"%X c #D17147",
"&X c #D27146",
"*X c #D27147",
"=X c #D17246",
"-X c #D37247",
";X c #D27347",
":X c #D17149",
">X c #D27248",
",X c #D37248",
"<X c #D37349",
"1X c #D3714A",
"2X c #D2724A",
"3X c #D3734B",
"4X c #D47349",
"5X c #D17449",
"6X c #D37448",
"7X c #D4744A",
"8X c #D4744C",
/* pixels */
"[.[.;X[.6X[.[.F.r.8 $ r <X<X7XF.[.[.7X[.[.<X[.[.[.F.d.r $ 8 <X<X",
"F.F._.F._.F.F.r.} r - r <X[.).F.~.F._.F.F.[.F.~.F.d.' r $ r <X[.",
"F.d.d.V.m.d.q.} } r ; r [.V.k.d./.F.d.m.F.d.d./.d.} } r $ r ).d.",
"q.( ' r.} ( ( } ( 6 - 5 r.r.' ( ' r.' } d.} ( ( ( ( ( 4 ; 4 r.=.",
"S S S h S S S S 4 $ $ < h S S S S S S S S S S S 4 4 S $ $ $ H S ",
"R R $ $ $ R R R R U U U R R R R R $ $ $ R L R L R R R U U U R ! ",
"C V R $ U ,.,.,.,.,.K ,.,.,.,.C C R $ R ,.,.,.,.,.,.,.,.,.,.C C ",
"V.d.k - k <XXX<X<X<X<X<X|.XX|.V.d.8 $ 9 4X<X<X8X<XXXXX<XXX<XF.F.",
"V.' 0 - m <XQ.<XXX;XOXXXQ.F.V.k.} 0 $ k <X4X<XXXXXR.F.XXF.XXF.F.",
"d.} 0 - m <X<X[.F.Q.F.F.[.F.F.7.} r $ k 6XXX[.F.F.<XF.F.d.F.F.F.",
"} } 0 - m <X XF.Q.XXF.F.d.d.F.d.} r $ k 6XQ.F.R.F.XXV.k.3.d.F.M.",
"=.} 0 - m <XV.F.XXF.d.d.=.7.e.' } 9 $ r XX;XF.[.F.d.d.1.d.7.d.} ",
"} ' 0 - m ;XF.k.k.k.} } k.k.} =.} r $ r V.k.d.} k.} } k.} k.} } ",
"} ' S - h k.d.' } ' } } } ( } } } S $ S d.} ' } ( } ( =.' } } ' ",
"h S - $ - h h h h h h h h h h h S $ $ < h h h h h h h h h h h h ",
". . . R . $ $ $ ~ . . . . . . . . . . . ~ $ $ $ . . . . . . . . ",
"V m m m k - $ ~ 7.7.7.7.7.3.7.7.1.} =.=.=.. $ $ V V V J V V V V ",
"XXY.F.F.V.k - } <X7X4X;X;X;X;X;XF.Y.F.V.F.r $ r <X<X<X<X;X<X;X;X",
"F.;XF.k.k.k - =.<X<X;XY.V.Y.V.Y.F.;XF.=.k.9 $ r 4X<X6X;XF.;XF.Y.",
"V.V.V.=.} 8 - =.<X;XY.;XF.;XF.;XF.F.F.V.} r - r <X<X;XV.Y.F.F.;X",
"F.F.F.k.} r - =.<XY.;XF.;XF.;XF.F.F.V.} =.r $ r <X6XF.F.7XY.;XF.",
"F.F.M.} } r - =.<XV.Y.F.F.W.F.F.F.F.V.F.} r $ r <X;XF.;X6X;XV.F.",
"F.V.=.=.} r - =.<XF.<XY.Y.;XF.F.V.F.} F.} r $ r <XV.F.F.<XF.F.F.",
"F.F.F.k.} r - =.<XF.F.;X;XF.F.F.F.F.} F.} r $ r <XF.6XF.F.F.F.F.",
"F.V.F.} ' r - =.<XF.F.F.F.F.F.V.V.F.F.V.} r > r <XF.;XF.F.F.F.F.",
"V.3.k.} } 9 - =.;XY.;XF.V.F.V.F.=.F.F.} } r $ r <XV.V.V.F.V.F.V.",
"V.k.} } } r $ } V.F.V.V.=.F.} F.V.V.=.} =.r $ r ;XY.F.F.F.} V.} ",
"} } } =.} r - } F.F.=.V.V.V.V.k.} } } } } r $ r V.F.} V.k.V.V.k.",
"} } =.} } k - ' V.V.} } } } } } } } } } } u $ u V.V.} } } } } } ",
"u u u u h < $ $ u k u u u u u k u u y u k $ $ > h h u u u u u k ",
": $ $ $ - - - - - $ > < $ > $ - $ $ $ $ - - . . - $ - $ $ $ $ - ",
"r r 8 k r r 9 r h > $ > r r r 9 r r r r r r 9 8 9 r r $ $ > u 8 "
};
