/* XPM */
static char *d8636d1a967843d6ef10d85affcd2524e8uBz1IPz2YDvc6A[] = {
/* columns rows colors chars-per-pixel */
"32 32 222 2 ",
"   c #504E31",
".  c #4A5042",
"X  c #736B54",
"o  c #676755",
"O  c #456679",
"+  c #47687B",
"@  c #4A6A7E",
"#  c #486474",
"$  c #456768",
"%  c #6A6B64",
"&  c #6A6869",
"*  c #746B63",
"=  c #6E7263",
"-  c #696E72",
";  c #747573",
":  c #8C8A55",
">  c #878C5D",
",  c #8E8B5A",
"<  c #888853",
"1  c #938B55",
"2  c #92865F",
"3  c #928D5C",
"4  c #99935C",
"5  c #8C8C63",
"6  c #898B69",
"7  c #928D64",
"8  c #948867",
"9  c #8F9567",
"0  c #939163",
"q  c #93916B",
"w  c #9C9666",
"e  c #8C9779",
"r  c #939375",
"t  c #939B74",
"y  c #95987B",
"u  c #A79B6F",
"i  c #A59C7B",
"p  c #B5AA7D",
"a  c #356B8F",
"s  c #38708B",
"d  c #505E81",
"f  c #486783",
"g  c #7E9A81",
"h  c #7C9A98",
"j  c #7EACB9",
"k  c #7BCBE2",
"l  c #7CCDFA",
"z  c #7DD2F9",
"x  c #6AC5FA",
"c  c #8C9482",
"v  c #8B9C8C",
"b  c #969A84",
"n  c #859D98",
"m  c #939B94",
"M  c #A29582",
"N  c #8FA78F",
"B  c #92A58C",
"V  c #8AA397",
"C  c #8CA49A",
"Z  c #8CAA9D",
"A  c #8BA695",
"S  c #91A69B",
"D  c #97A492",
"F  c #ACA684",
"G  c #A2A18C",
"H  c #AAA68B",
"J  c #ADAC8C",
"K  c #B3AD8B",
"L  c #BBAE82",
"P  c #ABB38B",
"I  c #BBB48B",
"U  c #B4B888",
"Y  c #ADAA93",
"T  c #A9AD9C",
"R  c #B3AD94",
"E  c #BBAD99",
"W  c #B7AB97",
"Q  c #AFB194",
"!  c #AEB59C",
"~  c #B4B193",
"^  c #BBB49B",
"/  c #BABB9B",
"(  c #B7B698",
")  c #8AA7A6",
"_  c #8DA8A3",
"`  c #8CA5AA",
"'  c #8EAAA8",
"]  c #84A6A5",
"[  c #92ADA4",
"{  c #87ABB7",
"}  c #B5B4A2",
"|  c #BDBBA3",
" . c #BBB7AA",
".. c #A5BFBE",
"X. c #C4BA98",
"o. c #C2BDA5",
"O. c #C4BEAB",
"+. c #C9BEAC",
"@. c #C8B7A1",
"#. c #BEC29F",
"$. c #BDC2A2",
"%. c #BFC1A9",
"&. c #A3C3BE",
"*. c #BFCDBE",
"=. c #C7C29D",
"-. c #C4C1A5",
";. c #CAC4A5",
":. c #C4C3AB",
">. c #CBC4AB",
",. c #C1CBAA",
"<. c #CCCBAB",
"1. c #CBCDA6",
"2. c #D4CBAB",
"3. c #C5D1AD",
"4. c #D5D5AF",
"5. c #C5C4B2",
"6. c #CCC5B3",
"7. c #C4CBB2",
"8. c #CDCBB3",
"9. c #CDCDBA",
"0. c #C8C6BB",
"q. c #D2C5B4",
"w. c #D2CDB5",
"e. c #DBCCB4",
"r. c #D2CDBB",
"t. c #DACDBB",
"y. c #D6C6BB",
"u. c #CED2B3",
"i. c #C6D2BC",
"p. c #CDD4BA",
"a. c #D3D2B5",
"s. c #DBD5B4",
"d. c #D4D2BD",
"f. c #DAD4BD",
"g. c #DAD9BB",
"h. c #E3D3BA",
"j. c #E2D6B4",
"k. c #8CBEDC",
"l. c #85BFD5",
"z. c #92BFD4",
"x. c #86BFE7",
"c. c #8EC4D6",
"v. c #84C3DD",
"b. c #89C5DF",
"n. c #8CCADA",
"m. c #94C4D4",
"M. c #9DC3D4",
"N. c #95C9D7",
"B. c #93C5DE",
"V. c #93C9DA",
"C. c #9ECBDF",
"Z. c #9DC6D8",
"A. c #95C6CD",
"S. c #A5C4CD",
"D. c #ACC6CD",
"F. c #AAC9CB",
"G. c #A5C9C8",
"H. c #B0CAC9",
"J. c #BDD2C3",
"K. c #A4C6D4",
"L. c #ACC6D3",
"P. c #A4CAD6",
"I. c #ACC9D3",
"U. c #ABC5DA",
"Y. c #A2C9DB",
"T. c #A1C7DA",
"R. c #B4C6D5",
"E. c #B3D0D8",
"W. c #85C5E2",
"Q. c #8BC2E4",
"!. c #8BCAE5",
"~. c #85C3EC",
"^. c #8DC6ED",
"/. c #85CAED",
"(. c #8BCBE9",
"). c #93C3E3",
"_. c #99C7E3",
"`. c #94C9E3",
"'. c #93C4EC",
"]. c #9ECCE8",
"[. c #99CBE7",
"{. c #86C4F3",
"}. c #89C6F2",
"|. c #81C9F4",
" X c #8BCAF2",
".X c #8BCBF9",
"XX c #90CCF1",
"oX c #93D4F2",
"OX c #89D2F2",
"+X c #CACDC4",
"@X c gray81",
"#X c #D5CEC1",
"$X c #DACEC1",
"%X c #D8CECC",
"&X c #CED4C4",
"*X c #CDD3CB",
"=X c #C7D3C9",
"-X c #D4D3C3",
";X c #DAD5C3",
":X c #D6D9C4",
">X c #DCDAC4",
",X c #D4D5CA",
"<X c #DAD5CA",
"1X c #D3DACC",
"2X c #DDDBCC",
"3X c #DAD7D2",
"4X c #D6DCD2",
"5X c #DDDBD2",
"6X c #E1DAC7",
"7X c #E9DDC4",
"8X c #E1DCCC",
"9X c #E6D5CA",
"0X c #E2DDD2",
"qX c #E7DBD6",
"wX c #DBE5D6",
"eX c #E5E3CD",
"rX c #EAE2CC",
"tX c #E3E3D4",
"yX c #E9E4D2",
"uX c #E6E3D9",
"iX c #E8E8DB",
"pX c #D9E1E3",
/* pixels */
"% = & X ; % ; ; * % - . X   a # @ O + + O @ + O f $ d s o %   * ",
"-Xf.#Xs.<Xd.2X>Xa.-Xs.( e.< .XG.S.E.I.S.I.S.I.S.K.F.R.b.d.-X( t.",
"K K R Q Y K R K J ^ p K ~ : ).i.r.9.9.8.-X9.-X2Xp.9.Y N.F ~ J E ",
") ' [ j ) Z ' _ ` C ` ] { [ Q.6.>X^ f.d.;X2X8X8X~ >X6 /.S [ ` ' ",
"F.L.&.~.F.F.D.F.L.D.R.G.T.H.^.q.r.} >X;X>X8X2X-X~ ;X> |.F...I.S.",
"9.#XJ ).9.d.0.d.i.<X2.8.0.P x.8.d.6XeXf.6X6X6X-Xg.e.4 ^.7.r.d.r.",
"$.t.9 Q.8.a. .-XwX5Xj./ ;X> ^.J.4XiX4X+X,X1X4X*X=X;X, ~.i.<X( :X",
"P t.< XX<.a.^ >X0X2X#X~ d.7 m.8.yX;X;X;X>XeX6Xd.,Xh.1 XX,.y.=.tX",
";X,X0 B.7.t.f.tX3Xs.d.9X9X2 n.y.6X$Xf.;XqXtXa.$X:X2X5 ~.3.3XeX8X",
"1XwX6 !.,X-X%X2X1Xa.1XeX-X0 k 5.-X-Xp.>XpX-Xp.2X9X9X8 '.u.0X>X#X",
"qX8X8 v.q.4.} 4.#X>X0X-.<X3 ~.w.-X^ d.h.@Xt.>X0X#.g., Q.,.5X-X3X",
":.w.7 OX6.p.} u.;XtXqXU &X7 {.5.<XK :Xh.+Xh.2X2X! d.6 b.,.-X/ >X",
"P 8.1 !.~ ^ @.X./ %.@.U Q w _.J ^ I ( I -.I / / | E 8 `.8.f.R d.",
"X. .0 k.V v D v v C m N C v k.S m N Z n S v v V C v b !.T O.^ +.",
"N h C /.|.P.Z.].T.K.U.M.P.M.].K.U.A.Z.{.S.C.L.T.M.F.H.z V B B e ",
"K.Y.L.M.^.1.e.<.p.;.a.-X;.-X<.w.q.i.! M.w.*.e.8.9.8.} /.I.K.[.`.",
"a.w.8.I /.6.d.o.f.d.d.r.-X-X9.2X-.d.1 ^.>.f.-.d.| f., ~.w.8.w.9.",
"a.5.>X7 v.r.8.Y -X-X2X;X-X;X<X0XH -X3 ^.d.w.J -XR d.: ~.8.d.O.;X",
"8.W 8.5 (.q.d.d.<X<XtX2X#X2XtX2Xf.9.,  X>.;Xw.r.f.-X3 }.8.d.| 0X",
">X;Xf.q !.+.d.f.0X0X2X-X-X8X0X-X>X-X3 }.6.-X;X2XiXr.0 ~.8.2X;X0X",
">XyX8.5 W.q.2Xd.8X8X-Xr.;X>X;Xd.d.-X3 ~.r.d.;XtX>X-X3 x.6.tXyX-X",
"eX<Xr.5 (.6.r.d.;X>Xd.d.>X-Xd.>XyX-X, }.5.;XyX2Xd.2X< }.8.>Xr.<X",
">X;X>X5 W.r.d.;Xd.-Xd.2X2X-X2X0X2X-X,  X8.d.;X<Xd.;X<  Xw.d.r.iX",
"f.<X9.0 W.w.-Xd.;X-X;XtX0X<X0X0X-X-X:  X8.d.;X<Xd.-X4 ~.>.f.>X2X",
"-X=.<X5 {.7.t.:.-Xd.uX:X&Xp.6X&X<.-X7 /.:.f.8XyXr.;X1 ~.r.-X:.-X",
"8.L 6.7 '.1.e.H ;X;X0X;X<X;X9X#Xi f.2 v.f.>X0X5X:X;X4 x.>.a.F s.",
"5.X.O.q B.( >.| -.o.;.O.-.o.| ;.:.:.6 !.>.uXeX,X-X9.:  X! 7.-.:.",
"c y m e z.B c c t e e b t b g t y r M `.>.5X8.1X2XuX, ~.b e r r ",
"B.N.c.N.OXc.N.N.N.B.n._.N.].z m./.n.M.x &X*Xs.>XrX6X5 l S.V.V.oX",
"8.f.8.w.9.w.w.w.w.0.+Xt.r.W C.5.9.8.O.(.2.d.-.eXr.-X1 }.5.9.r.5.",
"5XtX9.-XtXtX-X-X<X-X*X;.:Xq W.9.j.e.u l.>.>XG d.G ;X3 Q.w.w.X.7X",
"0X-X;XuX7X-X-X-XqXrX,Xu f.3 ~.o.9.0.y /.| $.6.:.:.;.1 ~.8.&XG tX"
};
