/* XPM */
static char *_4b6fca17e0c485ba1186e788f1eca22oCsQsBMDrqFLSHkA[] = {
/* columns rows colors chars-per-pixel */
"32 32 133 2 ",
"   c #27241D",
".  c #29271B",
"X  c #2C2A1E",
"o  c #2A2722",
"O  c #2D2C23",
"+  c #2E2E2A",
"@  c #312E26",
"#  c #302E2A",
"$  c #34332D",
"%  c #39362E",
"&  c #363531",
"*  c #393632",
"=  c #3B3A35",
"-  c #3D3C39",
";  c #413E37",
":  c #413E39",
">  c #44423E",
",  c #48453E",
"<  c #454442",
"1  c #494743",
"2  c #4C4A45",
"3  c #464549",
"4  c #4B4B4A",
"5  c #514F4A",
"6  c #55524D",
"7  c #58554E",
"8  c #5C584F",
"9  c #4D4D51",
"0  c #555553",
"q  c #585654",
"w  c #5B5956",
"e  c #575659",
"r  c #595759",
"t  c #575958",
"y  c #5C5C5C",
"u  c #615F5B",
"i  c #5E605F",
"p  c #64625D",
"a  c #5E5E61",
"s  c #615F62",
"d  c #636363",
"f  c #686765",
"g  c #6C6865",
"h  c #6C6B66",
"j  c #6B6A66",
"k  c #656668",
"l  c #676769",
"z  c #676769",
"x  c #69676A",
"c  c #686868",
"v  c DimGray",
"b  c #6A6A68",
"n  c #6B6B69",
"m  c #68686A",
"M  c #696B6A",
"N  c #6A6A6A",
"B  c gray42",
"V  c #6D6C68",
"C  c #6C6D68",
"Z  c #6E6D69",
"A  c #6D6E69",
"S  c #6C6C6A",
"D  c #6D6D6B",
"F  c #6E6D6B",
"G  c #6F6E6A",
"H  c #68696D",
"J  c #6B6B6D",
"K  c #6D6B6E",
"L  c #6B6D6C",
"P  c #686C6F",
"I  c #6B6C6E",
"U  c #6C6C6C",
"Y  c #6D6D6D",
"T  c #6F6E6C",
"R  c #6F6F6D",
"E  c #6C6C6E",
"W  c #6C6D6F",
"Q  c #6D6D6F",
"!  c #6D6F6E",
"~  c gray43",
"^  c #6F6F6F",
"/  c #6C6C6B",
"(  c #706F6B",
")  c #706E6B",
"_  c #6F706B",
"`  c #71706C",
"'  c #72716C",
"]  c #72716D",
"[  c #73726D",
"{  c #71716F",
"}  c #74736F",
"|  c #73746F",
" . c #72716E",
".. c #6F6D70",
"X. c #6E6E70",
"o. c #6F6F71",
"O. c #6F6F71",
"+. c #6F7170",
"@. c #6F7075",
"#. c gray44",
"$. c #717171",
"%. c #707271",
"&. c #707072",
"*. c #717173",
"=. c #727272",
"-. c gray45",
";. c #747371",
":. c #757671",
">. c #747472",
",. c #757472",
"<. c #707175",
"1. c #727274",
"2. c #737375",
"3. c #747474",
"4. c gray46",
"5. c #747675",
"6. c #767674",
"7. c #747476",
"8. c #747577",
"9. c #767676",
"0. c #777777",
"q. c #737373",
"w. c #787775",
"e. c #787677",
"r. c #797977",
"t. c #787876",
"y. c #747378",
"u. c #767678",
"i. c #767779",
"p. c #77787D",
"a. c #7B7A78",
"s. c #7B7B7B",
"d. c #78787A",
/* pixels */
"0 4 e e 0 0 9 0 y 3 y y c p O O O . . O O X X . O o $   $ 4 4 9 ",
"y c e y d c e d e d y y b b # p p p p p p p p p f p w $ : w y y ",
"= > > = < - > - = < - - 1 F * > T 0.0.=.0.0.=.0.0.r.} * % : > > ",
"# % $ $ # * $ $ * O = & o - # = y X.2.T =.X.T =.J X.T & * $ + $ ",
"u u p $ p p p p p w p y h p * * t L =.T =.+.T 0.p.0.T - 7 p p p ",
"F ` h $ , ` ` ;._ s.;.f T F * = w c c c F F T 0.2.2.c $ 1 b >.` ",
"=.F | $ & y r.=.T T T s.w.b $ * y d c c c T =.0.T 0.` & * y L T ",
"=.0.d = * y c X.T i.2.T =.F = * r y d x x x K X.=.;.F = & e l L ",
"0.=.T # = y y c T =.c L >.F & * 0 p y d c d _ b @.y.T = = w d c ",
"=.=.F $ = w y a d c l X.0.F $ - y y d y a d c c 2.i.c = - e y L ",
"c T ( $ = 6 y c y a d T 0.T + = y y c a y c a c c 0.b & - w d J ",
"c f F # > w y y y y r d T >.$ - r 0 y s y y q y c >.` = = e y a ",
"y w } $ = 1 < < , < > < 6 p $ * < > > < < > > 1 < 2 u = = 0 d y ",
"1 < g % @ % $ $ $ % $ $ $ , + % $ % % + % $ % $ & $ 1 $ % - 3 3 ",
"$ + : % % 7 p y w y p y w u y u w u y - 6 y u y p w w $ = % # $ ",
"w p w 8 $ 2 ( >.>.` ;.0.2.=.w.=.;.=.F # 4 F =.0.=.>.( = 6 w w u ",
"=.=.3.h % - d T T =.=.0.0.3.0.=.X.0.T & = y =.s.X.=.c - < F 0.2.",
"=.=.3.b $ * y c T +.T =.=.=.0.=.X.0.T $ = y T 0.X.0.F = = y T 0.",
"T =.0.F $ * w a c c c T +.T 0.=.=.0.( & = w c 2.X.0.( = & w c =.",
"T T 0.F $ - y d d c c c T T =.=.=.0.T & = y c =.=.0.F = = y c J ",
"c T 3.b $ * w y d c c c T T =.=.2.=.n $ - y c J =.=.c = = y d d ",
"U =.0.F $ * w y y d d c c c T T 0.0.c & - w c c =.=.F = * 0 y d ",
"c +.w.F % - w y d y y d d d c c 2.0.T * - q c c =.0.F = * 0 y d ",
"d c ;.h % - w y d d y y d d c c T =.F & = 0 d J =.=.b = = q y y ",
"a d r.F + - a e y a y y c a y c d =.F * * e d L T =.b = = e y a ",
"e y ` ` % - e y y y y y y y y y s ` } * - q c d T >.( * = 0 y a ",
"< 1 0 p % = < 4 < 1 < 1 < < 2 > 3 6 p $ - q l i c ` F % = > < 1 ",
"$ $ * , $ $ $ * * * * * * * % * & * 2 @ - 0 d y T ` ( % ; * # $ ",
"q 6 6 q q q q 6 6 6 0 5 6 6 % 2 0 5 7 % = e a y n ` n * 2 6 6 6 ",
"( ` ;.F ` F ` ` =.` >.F } F & 6 T ` g = * y c d c ;.( * 2 h >.=.",
"=.=.=.=.=.T =.0.T T 0.=.=.h $ - s F F * = 0 y y d =.( * - p T J ",
"c l c X.X.X.J X.T T =.0.` F = & 3 q f * - < 4 4 4 y p = = 0 d J "
};
